<?xml version="1.0" encoding="UTF-8" standalone="no" ?>
<!DOCTYPE svg PUBLIC "-//W3C//DTD SVG 1.1//EN" "http://www.w3.org/Graphics/SVG/1.1/DTD/svg11.dtd">
<svg xmlns="http://www.w3.org/2000/svg" xmlns:xlink="http://www.w3.org/1999/xlink" version="1.1" width="500" height="500" viewBox="0 0 500 500" xml:space="preserve">
<desc>Created with Fabric.js 4.6.0</desc>
<defs>
</defs>
<g transform="matrix(1 0 0 1 250.39 263.13)" id="hxh7ScPUPG0kwd6CaIIpe"  >
<linearGradient id="SVGID_478" gradientUnits="userSpaceOnUse" gradientTransform="matrix(1 0 0 1 -249.94 -236.42)"  x1="0" y1="236.42417722568433" x2="499.88611276571146" y2="236.42417722568433">
<stop offset="0%" style="stop-color:#DF814B;stop-opacity: 1"/>
<stop offset="63.07743049127241%" style="stop-color:#B3846C;stop-opacity: 1"/>
<stop offset="100%" style="stop-color:#FF0000;stop-opacity: 1"/>
</linearGradient>
<path style="stroke: rgb(0,0,0); stroke-width: 0; stroke-dasharray: none; stroke-linecap: butt; stroke-dashoffset: 0; stroke-linejoin: miter; stroke-miterlimit: 4; fill: url(#SVGID_478); fill-rule: nonzero; opacity: 1;" vector-effect="non-scaling-stroke"  transform=" translate(0, 0)" d="M -249.94306 111.32357 C -249.94306 111.32357 -147.24036 135.64789000000002 -0.39350999999999203 60.87312000000001 C 146.45334 -13.901649999999997 77.82237 -128.17783 170.61516 -121.87152 C 263.40795 -115.56521000000001 249.15604000000002 -236.42417 249.15604000000002 -236.42417 L 249.15604000000002 236.42417999999998 L -249.94306 236.42417999999998 z" stroke-linecap="round" />
</g>
<g transform="matrix(0.57 0 0 0.57 250 250)" id="0t1-ZS4CrJcwCdjVqD0HF"  >
<g style="" vector-effect="non-scaling-stroke"   >
		<g transform="matrix(1 0 0 1 -87.94 -80.39)" id="aL4oT3yiegWXNjNuILQMv"  >
<path style="stroke: none; stroke-width: 1; stroke-dasharray: none; stroke-linecap: butt; stroke-dashoffset: 0; stroke-linejoin: miter; stroke-miterlimit: 4; fill: rgb(255,244,218); fill-rule: nonzero; opacity: 1;" vector-effect="non-scaling-stroke"  transform=" translate(-212.06, -219.61)" d="M 297.652 145.449 L 297.652 134.014 C 203.26299999999998 134.014 126.469 210.808 126.469 305.198 L 137.904 305.198 C 137.904 217.112 209.567 145.449 297.652 145.449 z" stroke-linecap="round" />
</g>
		<g transform="matrix(1 0 0 1 0 -4.33)" id="W28HMsw0PAjgd5oJGBRqu"  >
<path style="stroke: none; stroke-width: 1; stroke-dasharray: none; stroke-linecap: butt; stroke-dashoffset: 0; stroke-linejoin: miter; stroke-miterlimit: 4; fill: rgb(160,161,215); fill-rule: nonzero; opacity: 1;" vector-effect="non-scaling-stroke"  transform=" translate(-300, -295.67)" d="M 297.652 181.662 C 229.536 181.662 174.11599999999999 237.08100000000002 174.11599999999999 305.198 C 174.11599999999999 373.316 229.53499999999997 428.735 297.652 428.735 C 365.77099999999996 428.735 421.19 373.31600000000003 421.19 305.198 C 421.19 237.082 365.771 181.662 297.652 181.662 z M 297.652 417.302 C 235.839 417.302 185.551 367.01300000000003 185.551 305.19800000000004 C 185.551 243.38500000000005 235.83999999999997 193.09600000000003 297.652 193.09600000000003 C 359.466 193.09600000000003 409.756 243.38500000000005 409.756 305.19800000000004 C 409.756 367.013 359.467 417.302 297.652 417.302 z M 600 120.888 L 600 468.789 C 600 476.046 594.117 481.928 586.861 481.928 L 581.446 481.928 C 574.1890000000001 481.928 568.307 476.046 568.307 468.789 L 568.307 305.198 L 546.721 295.668 L 546.721 151.209 C 546.721 128.124 565.435 109.409 588.521 109.409 C 594.86 109.409 600 114.549 600 120.888 z M 90.603 125.472 L 90.603 203.153 C 90.603 222.589 78.33999999999999 239.117 61.14699999999999 245.548 L 61.14699999999999 468.789 C 61.14699999999999 476.046 55.26499999999999 481.928 48.007999999999996 481.928 L 42.592999999999996 481.928 C 35.336999999999996 481.928 29.453999999999997 476.046 29.453999999999997 468.789 L 29.453999999999997 245.548 C 12.263 239.116 0 222.589 0 203.153 L 0 125.472 C 0 121.505 3.216 118.288 7.183 118.288 C 11.15 118.288 14.366 121.50399999999999 14.366 125.472 L 14.366 184.381 C 14.366 190.941 19.683 196.257 26.241999999999997 196.257 C 32.800999999999995 196.257 38.117999999999995 190.94 38.117999999999995 184.381 L 38.117999999999995 125.47200000000001 C 38.117999999999995 121.50500000000001 41.333999999999996 118.28800000000001 45.300999999999995 118.28800000000001 C 49.267999999999994 118.28800000000001 52.483999999999995 121.504 52.483999999999995 125.47200000000001 L 52.483999999999995 184.381 C 52.483999999999995 190.941 57.800999999999995 196.257 64.36 196.257 C 70.91900000000001 196.257 76.236 190.94 76.236 184.381 L 76.236 125.47200000000001 C 76.236 121.50500000000001 79.452 118.28800000000001 83.41900000000001 118.28800000000001 L 83.41900000000001 118.28800000000001 C 87.387 118.289 90.603 121.505 90.603 125.472 z" stroke-linecap="round" />
</g>
		<g transform="matrix(1 0 0 1 -2.35 5.2)" id="D5ZpPrcR-kFA_6rXoYiSf"  >
<path style="stroke: none; stroke-width: 1; stroke-dasharray: none; stroke-linecap: butt; stroke-dashoffset: 0; stroke-linejoin: miter; stroke-miterlimit: 4; fill: rgb(185,222,248); fill-rule: nonzero; opacity: 1;" vector-effect="non-scaling-stroke"  transform=" translate(-297.65, -305.2)" d="M 409.756 305.198 C 409.756 367.012 359.467 417.30199999999996 297.652 417.30199999999996 C 235.839 417.30199999999996 185.551 367.013 185.551 305.198 C 185.551 243.385 235.83999999999997 193.09599999999998 297.652 193.09599999999998 C 359.467 193.097 409.756 243.386 409.756 305.198 z M 483.047 305.198 C 483.047 407.58799999999997 400.043 490.591 297.654 490.591 C 195.264 490.591 112.261 407.588 112.261 305.198 C 112.261 202.80899999999997 195.264 119.80499999999998 297.654 119.80499999999998 C 400.043 119.805 483.047 202.809 483.047 305.198 z M 297.652 145.449 L 297.652 134.014 C 203.26299999999998 134.014 126.469 210.808 126.469 305.198 L 137.904 305.198 C 137.904 217.112 209.567 145.449 297.652 145.449 z M 421.19 305.198 C 421.19 237.08099999999996 365.771 181.66199999999998 297.652 181.66199999999998 C 229.536 181.66199999999998 174.11599999999999 237.08099999999996 174.11599999999999 305.198 C 174.11599999999999 373.316 229.53499999999997 428.735 297.652 428.735 C 365.771 428.735 421.19 373.316 421.19 305.198 z" stroke-linecap="round" />
</g>
</g>
</g>
</svg>